# Blender v2.78 (sub 0) OBJ File: ''
# www.blender.org
mtllib Sci_Fi_Tile_Set.mtl
o GroundTile2
v -3.190887 1.649197 61.158974
v -11.081512 1.649199 48.827271
v -10.310577 1.649197 63.066689
v -107.192841 1.649197 63.066689
v -110.392853 -1.921057 66.266685
v -7.110565 -1.921058 66.266685
v 3.928864 1.649199 48.827286
v 7.128876 -1.921055 51.427353
v 7.128876 -1.921053 26.842651
v 3.928864 1.649202 28.042648
v -10.074066 -1.921041 -52.005402
v 7.128876 -1.921037 -71.717422
v 3.928864 1.649219 -72.917404
v -13.274078 1.649216 -53.205399
v -10.074066 -1.921049 7.130645
v -13.274078 1.649206 8.330627
v -10.310577 1.649223 -101.399048
v -7.110565 -1.921033 -104.599030
v -110.414886 -1.921030 -104.647003
v -107.192841 1.649223 -101.399048
v 7.128876 -1.921035 -89.759705
v 3.928864 1.649221 -87.159637
v -121.432281 1.649221 -87.159637
v -124.632294 -1.921031 -90.359650
v -124.632294 -1.921055 52.027283
v -121.432281 1.649199 48.827286
v -114.312561 1.649197 61.158974
v -117.512573 -1.921057 64.358971
v -119.524567 1.649198 55.946991
v -122.724579 -1.921056 59.146988
v 2.021149 1.649198 55.946991
v 5.221161 -1.921057 59.146988
v 0.009186 -1.921058 64.358971
v -3.190887 1.649223 -99.491333
v 0.009186 -1.921033 -102.691315
v 2.021149 1.649222 -94.279358
v 5.221161 -1.921034 -97.479340
v -119.524567 1.649222 -94.279358
v -122.724579 -1.921030 -97.479340
v -114.312561 1.649223 -99.491333
v -117.512573 -1.921029 -102.691315
v 10.328888 1.649209 25.642670
v 10.328888 1.649222 -70.517441
v -6.874054 1.649220 -50.805420
v -6.874054 1.649211 5.930649
v 122.167694 1.649221 -86.559723
v 122.167694 1.649204 48.227356
v 125.367706 -1.921057 51.427353
v 125.367706 -1.921039 -89.759705
v 25.168243 1.649203 63.066689
v 21.968231 -1.921058 66.266685
v 110.528351 -1.921059 66.266685
v 107.328339 1.649202 63.066689
v 10.328888 1.649205 48.227356
v 107.328339 1.649223 -101.399048
v 110.496368 -1.921036 -104.646637
v 21.968231 -1.921033 -104.599030
v 25.168243 1.649227 -101.399048
v 10.328888 1.649225 -86.559723
v 120.179596 1.649203 55.647026
v 123.379608 -1.921058 58.847023
v 114.748016 1.649202 61.078598
v 117.948029 -1.921059 64.278595
v 17.748566 1.649203 61.078598
v 14.548553 -1.921058 64.278595
v 12.316986 1.649204 55.647026
v 9.116974 -1.921057 58.847023
v 114.748016 1.649223 -99.410950
v 117.948029 -1.921036 -102.610962
v 120.179596 1.649222 -93.979370
v 123.379608 -1.921037 -97.179382
v 12.316986 1.649226 -93.979370
v 9.116974 -1.921034 -97.179382
v 17.748566 1.649226 -99.410950
v 14.548553 -1.921033 -102.610962
v -124.632294 2.916596 115.921700
v -124.632294 2.916592 138.858551
v 125.367706 2.916592 138.858551
v 125.367706 2.916595 115.921700
v -124.632294 0.032706 113.908379
v 125.367706 0.032705 113.908379
v 7.128876 0.032712 74.096291
v 7.128876 -1.921059 71.596291
v -41.592621 -1.921059 71.596291
v -41.005341 0.032713 74.096291
v 42.328033 -1.921059 71.596291
v 41.740753 0.032712 74.096291
v 69.518524 0.032710 87.909546
v 70.105804 -1.921061 85.409546
v 125.367706 0.032709 87.909546
v 125.367706 -1.921062 85.409546
v -69.370392 -1.921061 85.409546
v -68.783112 0.032711 87.909546
v -124.632294 -1.921060 85.409546
v -124.632294 0.032711 87.909546
v 125.367706 -1.921036 -111.141449
v 7.128876 -1.921032 -111.141449
v -124.632294 -1.921028 -111.141449
v -107.192841 1.649199 48.827286
v -11.186188 1.649221 -87.159637
v -107.192780 1.649221 -87.159637
vt 0.5223 0.6847
vt 0.5534 0.6363
vt 0.5495 0.6913
vt 0.9263 0.6895
vt 0.9398 0.7078
vt 0.5362 0.7099
vt 0.4957 0.6373
vt 0.4777 0.6482
vt 0.4779 0.5522
vt 0.4961 0.5582
vt 0.5413 0.2438
vt 0.4758 0.1645
vt 0.4938 0.1581
vt 0.5595 0.2377
vt 0.5422 0.4720
vt 0.5605 0.4779
vt 0.5456 0.0500
vt 0.5318 0.0316
vt 0.9397 0.0310
vt 0.9260 0.0497
vt 0.4741 0.0938
vt 0.4924 0.1043
vt 0.9795 0.1047
vt 1.0000 0.0914
vt 1.0000 0.6484
vt 0.9796 0.6350
vt 0.9533 0.6822
vt 0.9688 0.6989
vt 0.9730 0.6622
vt 0.9900 0.6771
vt 0.5026 0.6646
vt 0.4857 0.6798
vt 0.5072 0.7015
vt 0.5183 0.0570
vt 0.5027 0.0402
vt 0.4987 0.0770
vt 0.4816 0.0622
vt 0.9728 0.0771
vt 0.9900 0.0619
vt 0.9532 0.0567
vt 0.9686 0.0399
vt 0.4595 0.5459
vt 0.4574 0.1711
vt 0.5233 0.2497
vt 0.5239 0.4662
vt 0.0219 0.1114
vt 0.0266 0.6373
vt 0.0000 0.6507
vt -0.0000 0.0983
vt 0.4041 0.6923
vt 0.4178 0.7107
vt 0.0710 0.7126
vt 0.0842 0.6942
vt 0.4598 0.6344
vt 0.0788 0.0535
vt 0.0654 0.0351
vt 0.4131 0.0324
vt 0.3996 0.0509
vt 0.4565 0.1081
vt 0.0344 0.6658
vt 0.0176 0.6809
vt 0.0554 0.6867
vt 0.0406 0.7034
vt 0.4325 0.6845
vt 0.4481 0.7015
vt 0.4529 0.6633
vt 0.4699 0.6785
vt 0.0501 0.0614
vt 0.0348 0.0445
vt 0.0291 0.0826
vt 0.0121 0.0676
vt 0.4491 0.0793
vt 0.4658 0.0635
vt 0.4283 0.0584
vt 0.4434 0.0412
vt 1.0000 0.9090
vt 1.0000 1.0000
vt 0.0000 1.0000
vt 0.0000 0.9149
vt 1.0000 0.8953
vt 0.0000 0.9012
vt 0.4785 0.7431
vt 0.4785 0.7306
vt 0.6709 0.7299
vt 0.6681 0.7422
vt 0.3386 0.7319
vt 0.3417 0.7442
vt 0.2332 0.7985
vt 0.2301 0.7862
vt 0.0000 0.8003
vt 0.0000 0.7879
vt 0.7805 0.7830
vt 0.7778 0.7953
vt 1.0000 0.7824
vt 1.0000 0.7947
vt -0.0000 0.0000
vt 0.4733 0.0000
vt 1.0000 0.0000
vt 0.9251 0.6344
vt 0.5507 0.1050
vt 0.9249 0.1050
vn 0.1630 0.9388 0.3033
vn -0.0000 1.0000 0.0000
vn 0.0026 0.9634 0.2681
vn -0.0026 0.9650 0.2621
vn -0.0080 0.9712 0.2382
vn 0.0086 0.9668 0.2553
vn 0.1940 0.9810 0.0083
vn 0.0083 0.9953 0.0968
vn -0.1590 0.9855 0.0598
vn 0.1852 0.9798 -0.0752
vn 0.1736 0.9842 0.0345
vn -0.1570 0.9852 -0.0689
vn 0.1949 0.9764 0.0935
vn 0.0185 0.9998 0.0039
vn 0.1736 0.9842 -0.0345
vn 0.0177 0.9998 -0.0038
vn 0.0027 0.9633 -0.2686
vn 0.0054 0.9871 -0.1600
vn -0.0054 0.9872 -0.1596
vn -0.0026 0.9651 -0.2618
vn 0.0005 0.9935 -0.1141
vn 0.1851 0.9827 -0.0104
vn -0.2595 0.9657 -0.0019
vn -0.7328 0.6802 -0.0183
vn -0.7306 0.6825 0.0182
vn -0.2595 0.9657 0.0019
vn -0.1652 0.9372 0.3073
vn -0.0991 0.9826 0.1570
vn -0.3073 0.9372 0.1652
vn -0.2371 0.9599 0.1496
vn 0.3069 0.9381 0.1607
vn 0.3183 0.9272 0.1975
vn 0.1658 0.9505 0.2627
vn 0.1627 0.9391 -0.3028
vn 0.1563 0.9562 -0.2477
vn 0.3060 0.9384 -0.1602
vn 0.3094 0.9314 -0.1919
vn -0.3074 0.9372 -0.1652
vn -0.3082 0.9312 -0.1946
vn -0.1656 0.9373 -0.3065
vn -0.1567 0.9561 -0.2477
vn -0.0079 1.0000 0.0032
vn -0.0071 1.0000 -0.0033
vn -0.1356 0.9903 -0.0300
vn -0.1356 0.9903 0.0300
vn 0.0530 0.9986 -0.0004
vn 0.0546 0.9985 0.0004
vn 0.7299 0.6833 0.0191
vn 0.7321 0.6809 -0.0191
vn -0.0062 0.8554 0.5179
vn -0.0106 0.9637 0.2666
vn 0.0085 0.9766 0.2148
vn 0.0062 0.8554 0.5179
vn -0.0654 0.9979 0.0025
vn 0.0062 0.8566 -0.5159
vn 0.0063 0.9873 -0.1588
vn -0.0064 0.9874 -0.1583
vn -0.0064 0.8563 -0.5165
vn -0.0616 0.9981 -0.0032
vn 0.0405 0.9989 0.0217
vn 0.2348 0.9607 0.1482
vn 0.0302 0.9980 0.0561
vn 0.0983 0.9829 0.1557
vn -0.0302 0.9980 0.0561
vn -0.1640 0.9516 0.2598
vn -0.0405 0.9989 0.0217
vn -0.3133 0.9288 0.1977
vn 0.0303 0.9980 -0.0562
vn 0.1546 0.9572 -0.2448
vn 0.0405 0.9989 -0.0217
vn 0.3045 0.9329 -0.1922
vn -0.0405 0.9989 -0.0217
vn -0.3045 0.9329 -0.1922
vn -0.0302 0.9980 -0.0561
vn -0.1546 0.9571 -0.2450
vn 0.0000 0.9934 -0.1148
vn 0.0000 0.9586 -0.2847
vn 0.0000 0.9988 -0.0499
vn 0.0000 0.9343 -0.3566
vn -0.0205 0.9934 -0.1132
vn -0.0106 0.9982 -0.0587
vn 0.0258 0.9936 -0.1098
vn 0.0108 0.9987 -0.0490
vn 0.0025 0.9999 -0.0151
vn 0.0255 0.9878 -0.1538
vn 0.0000 0.9922 -0.1245
vn -0.0000 0.9752 -0.2215
vn -0.0254 0.9879 -0.1531
vn -0.0025 0.9999 -0.0151
vn 0.0000 0.9756 -0.2196
usemtl M_SciFi_GroundTile_A_SG
s 1
f 1/1/1 2/2/2 3/3/3
f 3/3/3 4/4/4 5/5/5 6/6/6
f 7/7/7 8/8/8 9/9/9 10/10/10
f 11/11/11 12/12/12 13/13/13 14/14/14
f 15/15/15 11/11/11 14/14/14 16/16/16
f 9/9/9 15/15/15 16/16/16 10/10/10
f 17/17/17 18/18/18 19/19/19 20/20/20
f 12/12/12 21/21/21 22/22/22 13/13/13
f 23/23/23 24/24/24 25/25/25 26/26/26
f 4/4/4 27/27/27 28/28/28 5/5/5
f 27/27/27 29/29/29 30/30/30 28/28/28
f 29/29/29 26/26/26 25/25/25 30/30/30
f 7/7/7 31/31/31 32/32/32 8/8/8
f 31/31/31 1/1/1 33/33/33 32/32/32
f 1/1/1 3/3/3 6/6/6 33/33/33
f 17/17/17 34/34/34 35/35/35 18/18/18
f 34/34/34 36/36/36 37/37/37 35/35/35
f 36/36/36 22/22/22 21/21/21 37/37/37
f 23/23/23 38/38/38 39/39/39 24/24/24
f 38/38/38 40/40/40 41/41/41 39/39/39
f 40/40/40 20/20/20 19/19/19 41/41/41
f 42/42/42 43/43/43 44/44/44 45/45/45
f 46/46/46 47/47/47 48/48/48 49/49/49
f 50/50/50 51/51/51 52/52/52 53/53/53
f 9/9/9 8/8/8 54/54/54 42/42/42
f 12/12/12 11/11/11 44/44/44 43/43/43
f 11/11/11 15/15/15 45/45/45 44/44/44
f 15/15/15 9/9/9 42/42/42 45/45/45
f 55/55/55 56/56/56 57/57/57 58/58/58
f 59/59/59 21/21/21 12/12/12 43/43/43
f 47/47/47 60/60/60 61/61/61 48/48/48
f 60/60/60 62/62/62 63/63/63 61/61/61
f 62/62/62 53/53/53 52/52/52 63/63/63
f 50/50/50 64/64/64 65/65/65 51/51/51
f 64/64/64 66/66/66 67/67/67 65/65/65
f 66/66/66 54/54/54 8/8/8 67/67/67
f 55/55/55 68/68/68 69/69/69 56/56/56
f 68/68/68 70/70/70 71/71/71 69/69/69
f 70/70/70 46/46/46 49/49/49 71/71/71
f 59/59/59 72/72/72 73/73/73 21/21/21
f 72/72/72 74/74/74 75/75/75 73/73/73
f 74/74/74 58/58/58 57/57/57 75/75/75
f 76/76/76 77/77/2 78/78/2 79/79/76
f 80/80/77 76/76/76 79/79/76 81/81/77
f 82/82/78 83/83/79 84/84/80 85/85/81
f 86/86/82 87/87/83 88/88/84 89/89/85
f 89/89/85 88/88/84 90/90/86 91/91/87
f 85/85/81 84/84/80 92/92/88 93/93/89
f 93/93/89 92/92/88 94/94/90 95/95/86
f 88/88/84 93/93/89 80/80/77 81/81/77
f 87/87/83 86/86/82 83/83/79 82/82/78
f 96/96/2 97/97/2 57/57/57 56/56/56
f 97/97/2 98/98/2 19/19/19 18/18/18
f 84/84/80 5/5/5 92/92/88
f 52/52/52 91/91/87 63/63/63
f 61/61/61 91/91/87 48/48/48
f 63/63/63 91/91/87 61/61/61
f 94/94/90 30/30/30 25/25/25
f 94/94/90 28/28/28 30/30/30
f 94/94/90 5/5/5 28/28/28
f 52/52/52 51/51/51 83/83/79 86/86/82
f 97/97/2 37/37/37 21/21/21
f 57/57/57 97/97/2 75/75/75
f 73/73/73 97/97/2 21/21/21
f 75/75/75 97/97/2 73/73/73
f 97/97/2 35/35/35 37/37/37
f 97/97/2 18/18/18 35/35/35
f 83/83/79 67/67/67 8/8/8
f 6/6/6 83/83/79 33/33/33
f 83/83/79 51/51/51 65/65/65
f 83/83/79 65/65/65 67/67/67
f 32/32/32 83/83/79 8/8/8
f 33/33/33 83/83/79 32/32/32
f 96/96/2 71/71/71 49/49/49
f 96/96/2 69/69/69 71/71/71
f 96/96/2 56/56/56 69/69/69
f 19/19/19 98/98/2 41/41/41
f 39/39/39 98/98/2 24/24/24
f 41/41/41 98/98/2 39/39/39
f 46/46/46 59/59/59 43/43/43
f 2/2/2 99/99/2 4/4/4 3/3/3
f 22/22/22 100/100/2 14/14/14 13/13/13
f 62/62/62 64/64/64 50/50/50 53/53/53
f 68/68/68 74/74/74 72/72/72 70/70/70
f 34/34/34 100/100/2 36/36/36
f 17/17/17 20/20/20 101/101/2 100/100/2
f 16/16/16 2/2/2 7/7/7 10/10/10
f 16/16/16 99/99/2 2/2/2
f 52/52/52 89/89/85 91/91/87
f 52/52/52 86/86/82 89/89/85
f 6/6/6 5/5/5 84/84/80 83/83/79
f 92/92/88 5/5/5 94/94/90
f 82/82/78 85/85/81 93/93/89 88/88/84 87/87/83
f 88/88/84 81/81/77 90/90/86
f 80/80/77 93/93/89 95/95/86
f 47/47/47 42/42/42 54/54/54
f 46/46/46 43/43/43 42/42/42 47/47/47
f 14/14/14 101/101/2 99/99/2 16/16/16
f 100/100/2 101/101/2 14/14/14
f 47/47/47 54/54/54 66/66/66 60/60/60
f 60/60/60 66/66/66 64/64/64 62/62/62
f 55/55/55 58/58/58 74/74/74 68/68/68
f 70/70/70 72/72/72 59/59/59 46/46/46
f 17/17/17 100/100/2 34/34/34
f 36/36/36 100/100/2 22/22/22
f 101/101/2 20/20/20 40/40/40
f 99/99/2 101/101/2 23/23/23 26/26/26
f 27/27/27 99/99/2 29/29/29
f 4/4/4 99/99/2 27/27/27
f 29/29/29 99/99/2 26/26/26
f 7/7/7 2/2/2 31/31/31
f 31/31/31 2/2/2 1/1/1
f 101/101/2 38/38/38 23/23/23
f 101/101/2 40/40/40 38/38/38
